<svg width="600" height="200" xmlns="http://www.w3.org/2000/svg">

    <ellipse cx="150" cy="155" rx="40" ry="15" fill="rgb(216, 203, 203)" /> 
    <ellipse cx="60" cy="115" rx="40" ry="15" transform="rotate(15, 60, 130)" fill="orange" /> 
    <circle cx="150" cy="100" r="60" fill="orange" />
    <circle cx="145" cy="90" r="25" fill="white" />
    <circle cx="175" cy="90" r="25" fill="white" />
    <circle cx="180" cy="90" r="5" fill="black" />
    <circle cx="150" cy="90" r="5" fill="black" />
    <circle cx="160" cy="113" r="8" fill="black" />
    <ellipse cx="153" cy="135" rx="10" ry="5" fill="red" /> 
    <polygon points="102,65 160,50 117,30" fill="orange" />
    <polygon points="110,55 140,44 120,35" fill="black" />
    <polygon points="170,45 200,70 200,40" fill="orange" />
    <polygon points="175,47 197,63 197,43" fill="black" />
    <polygon points="40,120 27,105 47,100" fill="white" />


    <ellipse cx="350" cy="155" rx="40" ry="15" fill="rgb(216, 203, 203)" /> 
    <circle cx="350" cy="100" r="60" fill="rgb(232, 220, 48)" />
    <circle cx="325" cy="90" r="25" fill="white" />
    <circle cx="355" cy="90" r="25" fill="white" />
    <circle cx="350" cy="90" r="5" fill="black" />
    <circle cx="320" cy="90" r="5" fill="black" />
    <ellipse cx="340" cy="135" rx="5" ry="10" fill="red" /> 
</svg>



